<svg width="23" height="23" viewBox="0 0 23 23" fill="none" xmlns="http://www.w3.org/2000/svg">
<path d="M12.8333 1.5C12.8333 0.947715 12.3856 0.5 11.8333 0.5C11.281 0.5 10.8333 0.947715 10.8333 1.5V10.5H1.83333C1.28104 10.5 0.833328 10.9477 0.833328 11.5C0.833328 12.0523 1.28104 12.5 1.83333 12.5H10.8333V21.5C10.8333 22.0523 11.281 22.5 11.8333 22.5C12.3856 22.5 12.8333 22.0523 12.8333 21.5V12.5H21.8333C22.3856 12.5 22.8333 12.0523 22.8333 11.5C22.8333 10.9477 22.3856 10.5 21.8333 10.5H12.8333V1.5Z" fill="#242729"/>
</svg>
