<svg width="29" height="25" viewBox="0 0 29 25" fill="none" xmlns="http://www.w3.org/2000/svg">
<path fill-rule="evenodd" clip-rule="evenodd" d="M4.32814 -1.44581e-05C3.80101 -3.15058e-05 3.34622 -4.62122e-05 2.97165 0.0305568C2.57631 0.0628578 2.18309 0.134174 1.80471 0.326968C1.24022 0.614588 0.781283 1.07353 0.493662 1.63802C0.300868 2.0164 0.229552 2.40961 0.197251 2.80496C0.166648 3.17952 0.166663 3.63427 0.16668 4.1614V12.277C0.16668 12.8293 0.614397 13.277 1.16668 13.277C1.71897 13.277 2.16668 12.8293 2.16668 12.277V8.99999H26.1667V17.8C26.1667 18.3765 26.1659 18.7488 26.1428 19.0322C26.1206 19.3038 26.0829 19.4045 26.0577 19.454C25.9618 19.6421 25.8088 19.7951 25.6207 19.891C25.5712 19.9162 25.4705 19.9539 25.1988 19.9761C24.9155 19.9992 24.5432 20 23.9667 20H12.7222C12.17 20 11.7222 20.4477 11.7222 21C11.7222 21.5523 12.17 22 12.7222 22H24.0052C24.5324 22 24.9871 22 25.3617 21.9694C25.7571 21.9371 26.1503 21.8658 26.5287 21.673C27.0931 21.3854 27.5521 20.9264 27.8397 20.362C28.0325 19.9836 28.1038 19.5904 28.1361 19.195C28.1667 18.8204 28.1667 18.3657 28.1667 17.8386V4.16142C28.1667 3.63428 28.1667 3.17953 28.1361 2.80496C28.1038 2.40961 28.0325 2.0164 27.8397 1.63802C27.5521 1.07353 27.0931 0.614588 26.5287 0.326968C26.1503 0.134174 25.7571 0.0628578 25.3617 0.0305568C24.9871 -4.62104e-05 24.5324 -3.15058e-05 24.0053 -1.44581e-05H4.32814ZM26.1667 6.99999V4.19999C26.1667 3.62343 26.1659 3.25116 26.1428 2.96782C26.1206 2.69616 26.0829 2.59544 26.0577 2.546C25.9618 2.35784 25.8088 2.20485 25.6207 2.10898C25.5712 2.08379 25.4705 2.04611 25.1988 2.02391C24.9155 2.00077 24.5432 1.99999 23.9667 1.99999H4.36668C3.79013 1.99999 3.41786 2.00077 3.13452 2.02391C2.86285 2.04611 2.76214 2.08379 2.71269 2.10898C2.52453 2.20485 2.37155 2.35783 2.27568 2.546C2.25048 2.59544 2.21281 2.69616 2.19061 2.96782C2.16746 3.25116 2.16668 3.62343 2.16668 4.19999V6.99999H26.1667Z" fill="#242729"/>
<path d="M3.39846 17.3598C3.75202 16.9355 4.38259 16.8782 4.80687 17.2318L8.40687 20.2318C8.63486 20.4218 8.76668 20.7032 8.76668 21C8.76668 21.2968 8.63486 21.5782 8.40687 21.7682L4.80687 24.7682C4.38259 25.1218 3.75202 25.0644 3.39846 24.6402C3.0449 24.2159 3.10222 23.5853 3.5265 23.2318L5.00463 22H1.16668C0.614397 22 0.16668 21.5523 0.166682 21C0.166682 20.4477 0.614397 20 1.16668 20H5.00463L3.5265 18.7682C3.10222 18.4146 3.0449 17.7841 3.39846 17.3598Z" fill="#242729"/>
</svg>
