<svg width="25" height="29" viewBox="0 0 25 29" fill="none" xmlns="http://www.w3.org/2000/svg">
<path d="M5.5 16.5C5.5 15.9477 5.94772 15.5 6.5 15.5H13.5C14.0523 15.5 14.5 15.9477 14.5 16.5C14.5 17.0523 14.0523 17.5 13.5 17.5H6.5C5.94772 17.5 5.5 17.0523 5.5 16.5Z" fill="#242729"/>
<path d="M6.5 9.5C5.94772 9.5 5.5 9.94772 5.5 10.5C5.5 11.0523 5.94772 11.5 6.5 11.5H18.5C19.0523 11.5 19.5 11.0523 19.5 10.5C19.5 9.94772 19.0523 9.5 18.5 9.5H6.5Z" fill="#242729"/>
<path fill-rule="evenodd" clip-rule="evenodd" d="M13.9829 27.5827C13.0634 28.1055 11.9366 28.1055 11.0171 27.5827L10.9829 27.5633C10.0634 27.0404 8.93657 27.0404 8.0171 27.5633L7.81111 27.6804C6.99816 28.1427 6.00185 28.1427 5.18889 27.6804L4.36163 27.21C3.84865 26.9183 3.20581 26.9926 2.77297 27.3937C1.90678 28.1964 0.5 27.5821 0.5 26.4012L0.500004 3.5C0.500005 1.84315 1.84315 0.5 3.5 0.5L21.5 0.500004C23.1569 0.500004 24.5 1.84315 24.5 3.5L24.5 26.4012C24.5 27.5821 23.0932 28.1964 22.227 27.3937C21.7942 26.9927 21.1514 26.9183 20.6384 27.21L19.8111 27.6804C18.9982 28.1427 18.0019 28.1427 17.1889 27.6804L16.9829 27.5633C16.0634 27.0404 14.9366 27.0404 14.0171 27.5633L13.9829 27.5827ZM13.0285 25.8247C14.561 24.9533 16.4391 24.9533 17.9715 25.8247L18.1775 25.9418C18.3775 26.0555 18.6225 26.0555 18.8225 25.9418L19.6498 25.4714C20.5385 24.9661 21.5845 24.9041 22.5 25.2522L22.5 3.5C22.5 2.94772 22.0523 2.5 21.5 2.5L3.5 2.5C2.94772 2.5 2.5 2.94772 2.5 3.5L2.5 25.2522C3.4155 24.9041 4.46152 24.9661 5.35023 25.4714L6.1775 25.9418C6.37747 26.0555 6.62254 26.0555 6.82251 25.9418L7.02849 25.8247C8.56095 24.9533 10.4391 24.9533 11.9715 25.8247L12.0057 25.8441C12.3122 26.0184 12.6878 26.0184 12.9943 25.8441L13.0285 25.8247Z" fill="#242729"/>
</svg>
